<svg xmlns="http://www.w3.org/2000/svg" xmlns:xlink="http://www.w3.org/1999/xlink" width="458.8697" height="531.192" viewBox="0 0 458.8697 531.192"><defs><style>.cls-1{fill:none;}.cls-2{fill:#ccc;}.cls-3{fill:#ededed;}.cls-4{clip-path:url(#clip-path);}.cls-5{fill:#fff;}.cls-6{clip-path:url(#clip-path-2);}</style><clipPath id="clip-path" transform="translate(-0.02 51.467)"><path class="cls-1" d="M206.996,191.4669,205.55,231.68l59.1346-1.0793,1.6.0576q9.6032.3451,14.5531,7.5345,3.798,5.7469,3.4984,14.1485-.7625,21.2082-19.5979,21.3312l-60.7351,1.0217L202.328,321.31l111.5884-.1961.8074-.17q2.4152-.3133,7.744,1.881,11.658,4.428,11.0641,21.03-.8128,22.6113-20.0479,22.7182l-267.0409.2146q-20.6368.0569-19.8157-22.7482.8055-22.4034,19.8334-22.3233l105.7788-.2036,1.6615-46.2158-60.3278.8361-1.8078.1353a16.1692,16.1692,0,0,1-12.4387-5.0547q-5.7935-6.0163-5.4194-16.4211.7553-21.0069,19.5974-21.3312l61.9355-.9785L156.886,192.27l-53.3255,1.0878-1.8006-.0648a16.6005,16.6005,0,0,1-13.796-6.3053q-4.6074-5.5745-4.2981-14.1773l.0647-1.8006q-50.7554,35.4357-67.16,34.8459-9.2042-.3309-13.7384-7.9059a19.3429,19.3429,0,0,1-2.82-10.7186,16.2143,16.2143,0,0,1,4.3969-10.86q2.0838-2.3291,16.0151-10.8428,37.91-23.6764,80.7217-66.6106,36.57-36.5466,60.1665-74.361,8.7193-14.11,23.1254-13.592a27.0929,27.0929,0,0,1,14.8467,4.9409q10.3577,7.1855,9.9418,18.7873a31.4284,31.4284,0,0,1-1.2737,7.5665q8.6433,10.33,20.83,22.384,64.0179,63.6007,134.1854,101.18,16.5034,9.0071,16.2445,16.2094-.2157,6.002-11.7552,9.3933-27.9329,8.01-40.737,7.55a25.2581,25.2581,0,0,1-13.6689-4.2976q-17.5889-12.248-31.2045-23.5581-2.484,18.9447-19.1254,19.3448Zm48.0408-43.5463Q215.1148,110.427,187.5527,74.78q-28.3683,36.8415-77.0656,76.3577Z"/></clipPath><clipPath id="clip-path-2" transform="translate(-0.02 51.467)"><path class="cls-1" d="M207.016,191.4669,205.57,231.68l59.1346-1.0793,1.6005.0576q9.6031.3451,14.5532,7.5345,3.7978,5.7469,3.4983,14.1485-.7625,21.2082-19.5979,21.3312l-60.7351,1.0217L202.348,321.31l111.5884-.1961.8074-.17q2.4151-.3133,7.7441,1.881,11.658,4.428,11.0641,21.03-.813,22.6113-20.048,22.7182l-267.0409.2146q-20.6367.0569-19.8156-22.7482.8053-22.4034,19.8334-22.3233l105.7787-.2036,1.6615-46.2158-60.3278.8361-1.8078.1353a16.1693,16.1693,0,0,1-12.4387-5.0547q-5.7935-6.0163-5.4194-16.4211.7552-21.0069,19.5974-21.3312l61.9355-.9785L156.906,192.27l-53.3255,1.0878-1.8-.0648a16.6006,16.6006,0,0,1-13.7961-6.3053q-4.6074-5.5745-4.2981-14.1773l.0647-1.8006q-50.7553,35.4357-67.16,34.8459-9.2043-.3309-13.7385-7.9059a19.3429,19.3429,0,0,1-2.82-10.7186,16.2144,16.2144,0,0,1,4.397-10.86q2.0838-2.3291,16.0151-10.8428,37.91-23.6764,80.7216-66.6106,36.57-36.5466,60.1666-74.361,8.7194-14.11,23.1253-13.592a27.0926,27.0926,0,0,1,14.8467,4.9409q10.3577,7.1855,9.9418,18.7873a31.4185,31.4185,0,0,1-1.2737,7.5665q8.6433,10.33,20.83,22.384,64.0177,63.6007,134.1853,101.18,16.5034,9.0071,16.2445,16.2094-.2157,6.002-11.7552,9.3933-27.9327,8.01-40.737,7.55a25.2581,25.2581,0,0,1-13.6689-4.2976q-17.5888-12.248-31.2045-23.5581-2.484,18.9447-19.1253,19.3448Zm48.0409-43.5463Q215.1347,110.427,187.5727,74.78q-28.3683,36.8415-77.0655,76.3577Z"/></clipPath></defs><g id="Layer_2" data-name="Layer 2"><g id="Layer_1-2" data-name="Layer 1"><path class="cls-2" d="M223.8454,180.5205,222.4,220.7338l59.1345-1.0793,1.6006.0576q9.6032.3453,14.5531,7.5346,3.798,5.7468,3.4983,14.1484-.7624,21.2083-19.5978,21.3312l-60.7351,1.0217-1.6759,46.6159,111.5883-.1961.8075-.17q2.4151-.3134,7.744,1.881,11.658,4.428,11.0641,21.03-.8129,22.6114-20.0479,22.7182l-267.041.2146q-20.6367.0568-19.8156-22.7481Q44.2823,310.69,63.31,310.77l105.7787-.2036,1.6615-46.2158-60.3277.8361-1.8078.1353a16.17,16.17,0,0,1-12.4388-5.0546q-5.7935-6.0165-5.4193-16.4212.7551-21.0069,19.5973-21.3311l61.9355-.9786,1.4458-40.2133L120.41,182.411l-1.8006-.0647a16.6009,16.6009,0,0,1-13.796-6.3054q-4.6074-5.5744-4.2981-14.1773l.0647-1.8006q-50.7553,35.4357-67.16,34.846-9.2041-.3309-13.7385-7.906a19.3433,19.3433,0,0,1-2.82-10.7185,16.2144,16.2144,0,0,1,4.3969-10.86q2.0838-2.329,16.0151-10.8428,37.91-23.6765,80.7217-66.6106,36.57-36.5466,60.1665-74.361Q186.8816-.5,201.2875.0183a27.093,27.093,0,0,1,14.8468,4.9409q10.3577,7.1854,9.9417,18.7873a31.4239,31.4239,0,0,1-1.2736,7.5666q8.6432,10.33,20.83,22.3839,64.0177,63.6009,134.1854,101.18,16.5034,9.0071,16.2445,16.2094-.2158,6.0019-11.7552,9.3933-27.9328,8.01-40.737,7.55a25.2585,25.2585,0,0,1-13.6689-4.2975q-17.589-12.2481-31.2045-23.5582-2.484,18.9447-19.1254,19.3449Zm48.0408-43.5462q-39.922-37.4937-67.4841-73.1408-28.3683,36.8415-77.0656,76.3577Z" transform="translate(-0.02 51.467)"/><g id="Layer_2-2" data-name="Layer 2"><polygon class="cls-2" points="324.944 415.047 341.614 404.203 327.897 398.32 324.944 415.047"/><polygon class="cls-2" points="53.699 364.128 35.653 375.716 52.204 384.178 53.699 364.128"/><polygon class="cls-2" points="100.63 276.056 81.708 288.226 100.092 291.043 100.63 276.056"/><polygon class="cls-2" points="275.988 322.292 293.132 311.149 272.154 306.03 275.988 322.292"/><polygon class="cls-2" points="392.963 227.93 376.389 238.667 376.796 227.348 392.963 227.93"/><polygon class="cls-2" points="287.222 229.531 274.709 237.918 275.027 229.093 287.222 229.531"/><polygon class="cls-2" points="189.589 53.915 170.824 65.96 189.132 66.618 189.589 53.915"/></g><path class="cls-3" d="M207.016,191.4669,205.57,231.68l59.1346-1.0793,1.6005.0576q9.6031.3451,14.5532,7.5345,3.7978,5.7469,3.4983,14.1485-.7625,21.2082-19.5979,21.3312l-60.7351,1.0217L202.348,321.31l111.5884-.1961.8074-.17q2.4151-.3133,7.7441,1.881,11.658,4.428,11.0641,21.03-.813,22.6113-20.048,22.7182l-267.0409.2146q-20.6367.0569-19.8156-22.7482.8053-22.4034,19.8334-22.3233l105.7787-.2036,1.6615-46.2158-60.3278.8361-1.8078.1353a16.1693,16.1693,0,0,1-12.4387-5.0547q-5.7935-6.0163-5.4194-16.4211.7552-21.0069,19.5974-21.3312l61.9355-.9785L156.906,192.27l-53.3255,1.0878-1.8-.0648a16.6006,16.6006,0,0,1-13.7961-6.3053q-4.6074-5.5745-4.2981-14.1773l.0647-1.8006q-50.7553,35.4357-67.16,34.8459-9.2043-.3309-13.7385-7.9059a19.3429,19.3429,0,0,1-2.82-10.7186,16.2144,16.2144,0,0,1,4.397-10.86q2.0838-2.3291,16.0151-10.8428,37.91-23.6764,80.7216-66.6106,36.57-36.5466,60.1666-74.361,8.7194-14.11,23.1253-13.592a27.0926,27.0926,0,0,1,14.8467,4.9409q10.3577,7.1855,9.9418,18.7873a31.4185,31.4185,0,0,1-1.2737,7.5665q8.6433,10.33,20.83,22.384,64.0177,63.6007,134.1853,101.18,16.5034,9.0071,16.2445,16.2094-.2157,6.002-11.7552,9.3933-27.9327,8.01-40.737,7.55a25.2581,25.2581,0,0,1-13.6689-4.2976q-17.5888-12.248-31.2045-23.5581-2.484,18.9447-19.1253,19.3448Zm48.0409-43.5463Q215.1347,110.427,187.5727,74.78q-28.3683,36.8415-77.0655,76.3577Z" transform="translate(-0.02 51.467)"/><g class="cls-4"><polygon class="cls-5" points="53.699 466.016 0.755 470.925 279.285 4.91 332.229 0 53.699 466.016"/></g><g class="cls-6"><polygon class="cls-5" points="180.34 526.282 127.395 531.192 405.925 65.176 458.87 60.267 180.34 526.282"/></g></g></g></svg>